<svg viewBox="0 0 512 512" xmlns="http://www.w3.org/2000/svg">
  <defs>
    <linearGradient id="bg" x1="0%" y1="0%" x2="100%" y2="100%">
      <stop offset="0%" stop-color="#1E3A8A"/>
      <stop offset="100%" stop-color="#0F172A"/>
    </linearGradient>
    <linearGradient id="fg" x1="0%" y1="0%" x2="0%" y2="100%">
      <stop offset="0%" stop-color="#FFFFFF"/>
      <stop offset="100%" stop-color="#DBEAFE"/>
    </linearGradient>
    <filter id="glow" x="-50%" y="-50%" width="200%" height="200%">
      <feGaussianBlur stdDeviation="12" result="blur"/>
      <feMerge>
        <feMergeNode in="blur"/>
        <feMergeNode in="SourceGraphic"/>
      </feMerge>
    </filter>
  </defs>

  <rect width="512" height="512" fill="url(#bg)" rx="112"/>

  <g filter="url(#glow)">
    <path d="M 176 140
             C 176 118, 194 100, 216 100
             L 216 100
             C 238 100, 256 118, 256 140
             L 256 372
             C 256 394, 238 412, 216 412
             C 194 412, 176 394, 176 372
             Z"
          fill="url(#fg)"/>

    <path d="M 336 140
             C 336 118, 318 100, 296 100
             L 296 100
             C 274 100, 256 118, 256 140
             L 256 372
             C 256 394, 274 412, 296 412
             C 318 412, 336 394, 336 372
             Z"
          fill="url(#fg)" opacity="0.92"/>
  </g>

  <line x1="256" y1="150" x2="256" y2="362"
        stroke="#1E3A8A" stroke-width="6" stroke-linecap="round" opacity="0.35"/>

  <circle cx="216" cy="180" r="8" fill="#3B82F6" opacity="0.7"/>
  <circle cx="296" cy="260" r="8" fill="#3B82F6" opacity="0.7"/>
  <circle cx="216" cy="330" r="8" fill="#3B82F6" opacity="0.7"/>
</svg>
